<?xml version="1.0" encoding="utf-8"?>
<!-- Generator: Adobe Illustrator 19.1.0, SVG Export Plug-In . SVG Version: 6.00 Build 0)  -->
<svg version="1.1" id="Layer_1" xmlns="http://www.w3.org/2000/svg" xmlns:xlink="http://www.w3.org/1999/xlink" x="0px" y="0px"
	 width="172.5px" height="54.8px" viewBox="-213.5 393.4 172.5 54.8" style="enable-background:new -213.5 393.4 172.5 54.8;"
	 xml:space="preserve">
<style type="text/css">
	.st0{fill:#FFFFFF;}
</style>
<title>Fill 1</title>
<desc>Created with Sketch.</desc>
<g id="REACT-HOMEPAGE">
	<g id="React_HomePage_final_03" transform="translate(-637.000000, -236.000000)">
		<g id="Page-1" transform="translate(606.000000, 150.000000)">
			<path id="Fill-1" class="st0" d="M-78.3,527c-1.6,2.1-3.7,3.1-6.2,3.1c-1.5,0-2.7-0.3-3.7-1c-0.9-0.7-1.7-1.6-2.2-2.7
				c-0.5-1-0.9-2.3-1.1-3.8s-0.3-2.9-0.3-4.2h16.2C-75.7,522.1-76.6,524.9-78.3,527 M-161.9,505.9h-4.7v-21.6h6
				c3.2,0,5.7,0.9,7.4,2.7c1.8,1.8,2.6,4.2,2.6,7.3c0,3.6-1.1,6.4-3.3,8.5C-155.9,504.9-158.7,505.9-161.9,505.9 M-125.9,501.6
				c1.6-2.1,3.7-3.1,6.2-3.1c1.5,0,2.7,0.3,3.7,1c0.9,0.7,1.7,1.6,2.2,2.7c0.5,1,0.9,2.3,1.1,3.8s0.3,2.9,0.3,4.2h-16.2
				C-128.5,506.6-127.6,503.7-125.9,501.6 M-14,528.2c-1.2,0.1-2,0.2-2.6,0.2c-1.3,0-2.3-0.2-3.1-0.5c-0.8-0.4-1.3-0.9-1.7-1.6
				c-0.4-0.7-0.7-1.6-0.8-2.6c-0.1-1-0.2-2.2-0.2-3.7v-19.6h10V497h-10.1v-10.9h-6.3V497H-41c-1.7-0.8-3.8-1.1-6.1-1.1
				c-2.5,0-4.8,0.5-6.9,1.5c-2.1,1-3.9,2.4-5.3,4.1c-1.5,1.8-2.6,3.7-3.4,5.9c-0.8,2.1-1.2,4.5-1.2,6.9c0,5.7,1.4,10.2,4.3,13.6
				c0.1,0.1,0.1,0.1,0.2,0.2c-1.9,0.4-4.9,1.1-5.4,1.1c-0.8,0-1.6-0.1-2-0.4c-0.7-0.4-1.2-0.8-1.5-1.4c-0.3-0.6-0.5-1.3-0.5-2.2
				c0-2.9,0.1-7,0.2-9.7l0,0c0-0.2,0-0.4,0-0.5l0,0c0-0.1,0-0.2,0-0.3c0-2.5-0.3-4.9-1-7.2c-0.7-2.3-1.7-4.3-3.1-6s-3.1-3.1-5.2-4.1
				s-4.6-1.5-7.4-1.5c-3.2,0-6,0.8-8.5,2.5s-4.4,3.9-5.9,6.7c-3.1,5.4-3.1,8.6-7.3,17.1v0.1c-1.4,2.6-2.9,4.4-4.4,5.4
				s-3.4,1.5-5.5,1.5s-3.8-0.4-5.3-1.2s-2.7-1.9-3.6-3.3c-0.9-1.4-1.6-3.1-2.1-5c-0.4-1.9-0.7-4-0.7-6.3h23.2V511
				c0-2.1-0.3-4.1-0.8-5.9s-1.3-3.4-2.4-4.7c-1.1-1.4-2.6-2.5-4.4-3.3s-4-1.2-6.6-1.2c-2.5,0-4.7,0.5-6.7,1.5c-2,1-3.7,2.4-5,4.1
				c-1.4,1.8-2.5,3.7-3.2,5.9c-0.7,2.2-1.1,4.4-1.1,6.7c0,2.5,0.3,4.9,1,7.2s1.7,4.3,3.1,6c0.5,0.6,1.5,1.6,2,2.1
				c-2.9-0.1-6.4-0.8-6.8-1c-0.8-0.4-1.7-1-2.5-1.7s-1.8-1.7-2.8-3.1c-2.4-3.2-4.4-6-6.1-8.2c-1.6-2.3-3.7-5-6.2-8.3
				c1.8-0.5,3.4-1.2,4.9-1.9c1.5-0.7,2.8-1.6,3.8-2.6c1.2-1.1,2-2.4,2.6-3.9s0.9-3.2,0.9-5.2c0-2.2-0.4-4-1.3-5.5
				c-0.9-1.5-2.1-2.8-3.5-3.7c-1.5-1-3.2-1.7-5.1-2.1c-1.9-0.4-3.9-0.7-6-0.7h-23.3v2.5c0.7,0,1.5,0.2,2.4,0.3
				c0.9,0.2,1.7,0.4,2.3,0.6c0.9,0.3,1.4,0.8,1.7,1.5c0.2,0.6,0.4,1.4,0.4,2.2v36.5c0,0.9-0.2,1.7-0.5,2.3s-0.8,1-1.5,1.4
				c-0.4,0.2-1.2,0.3-2.3,0.5c-1.1,0.1-1.9,0.2-2.5,0.2v2.5h21.3v-2.5c-0.7,0-1.6-0.1-2.7-0.2c-1.1-0.1-1.8-0.3-2.2-0.5
				c-0.9-0.3-1.4-0.8-1.7-1.4c-0.3-0.6-0.4-1.4-0.4-2.2v-16h5.2c2.8,3.7,5.5,7.2,7.9,10.6c2.4,3.4,5.1,7.5,8.2,12.2h20.4
				c1.8,0.6,3.8,0.9,6,0.9c3.2,0,6-0.8,8.5-2.5s4.4-3.9,5.9-6.7c3.1-5.4,3.1-8.6,7.3-17.1v-0.1c1.4-2.6,2.9-4.4,4.4-5.4
				s3.4-1.5,5.5-1.5s3.8,0.4,5.3,1.2c1.5,0.8,2.7,1.9,3.6,3.3s1.6,3.1,2.1,5c0.4,1.9,0.7,4,0.7,6.3h-23.2v2.4c0,2.1,0.3,4.1,0.8,5.9
				c0.5,1.8,1.3,3.4,2.4,4.7c1.1,1.4,2.6,2.5,4.4,3.3s4,1.2,6.6,1.2c2.5,0,4.7-0.5,6.7-1.6c1.2-0.6,2.3-1.3,3.2-2.2
				c0.4,0.9,0.9,1.7,1.7,2.3c1.1,0.9,2.6,1.3,4.4,1.3c1.1,0,2.3-0.1,3.1-0.4c0.8-0.2,6.7-2,8-2.5c2.6,2,5.8,3,9.7,3
				c2.7,0,5.4-0.8,7.9-2.5c2.6-1.6,4.6-3.9,6.2-6.7l-2.3-1.5c-1.3,2.2-2.8,3.9-4.3,5c-1.6,1.1-3.5,1.7-5.8,1.7
				c-3.2,0-5.7-1.4-7.7-4.2s-2.9-6.4-2.9-10.8c0-2.8,0.3-5.2,0.8-7.2s1.3-3.6,2.1-4.8c1-1.3,2-2.2,3-2.7s2.1-0.7,3.2-0.7
				c1,0,1.9,0.1,2.7,0.4c0.8,0.2,1.5,0.7,1.9,1.5c0,0.5-0.2,1.3-0.5,2.5c-0.3,1.1-0.4,2.2-0.4,3.3c0,0.9,0.4,1.7,1.2,2.4
				c0.8,0.7,1.9,1.1,3.3,1.1c1.3,0,2.2-0.5,2.8-1.4s0.9-2,0.9-3.1c0-1.8-0.4-3.3-1.3-4.7h7.8v23.8c0,2.7,0.6,4.8,1.8,6.3
				c1.2,1.5,3.3,2.2,6.2,2.2c2,0,3.7-0.2,5.1-0.7c1.4-0.4,2.8-1,4.4-1.6v-2.6C-12,527.9-12.8,528.1-14,528.2"/>
		</g>
	</g>
</g>
</svg>
