<?xml version="1.0" encoding="utf-8"?>
<!-- Generator: Adobe Illustrator 19.1.0, SVG Export Plug-In . SVG Version: 6.00 Build 0)  -->
<svg version="1.1" id="Layer_1" xmlns="http://www.w3.org/2000/svg" xmlns:xlink="http://www.w3.org/1999/xlink" x="0px" y="0px"
	 width="169.4px" height="51.4px" viewBox="-211.1 395.6 169.4 51.4" style="enable-background:new -211.1 395.6 169.4 51.4;"
	 xml:space="preserve">
<style type="text/css">
	.st0{fill:#4A4A4A;}
</style>
<title>Fill 1</title>
<desc>Created with Sketch.</desc>
<g id="REACT-HOMEPAGE">
	<g id="React_HomePage_final_03" transform="translate(-637.000000, -236.000000)">
		<g id="Page-1" transform="translate(606.000000, 150.000000)">
			<path id="Fill-1" class="st0" d="M-77.5,527.2c-1.6,2.1-3.7,3.1-6.2,3.1c-1.5,0-2.7-0.3-3.7-1c-0.9-0.7-1.7-1.6-2.2-2.7
				c-0.5-1-0.9-2.3-1.1-3.8c-0.2-1.5-0.3-2.9-0.3-4.2h16.2C-74.9,522.3-75.8,525.1-77.5,527.2 M-161.1,506.1h-4.7v-21.6h6
				c3.2,0,5.7,0.9,7.4,2.7c1.8,1.8,2.6,4.2,2.6,7.3c0,3.6-1.1,6.4-3.3,8.5C-155.1,505.1-157.9,506.1-161.1,506.1 M-125.1,501.8
				c1.6-2.1,3.7-3.1,6.2-3.1c1.5,0,2.7,0.3,3.7,1c0.9,0.7,1.7,1.6,2.2,2.7c0.5,1,0.9,2.3,1.1,3.8c0.2,1.5,0.3,2.9,0.3,4.2h-16.2
				C-127.7,506.8-126.8,503.9-125.1,501.8 M-13.2,528.4c-1.2,0.1-2,0.2-2.6,0.2c-1.3,0-2.3-0.2-3.1-0.5c-0.8-0.4-1.3-0.9-1.7-1.6
				c-0.4-0.7-0.7-1.6-0.8-2.6c-0.1-1-0.2-2.2-0.2-3.7v-19.6h10v-3.4h-10.1v-10.9H-28v10.9h-12.2c-1.7-0.8-3.8-1.1-6.1-1.1
				c-2.5,0-4.8,0.5-6.9,1.5c-2.1,1-3.9,2.4-5.3,4.1c-1.5,1.8-2.6,3.7-3.4,5.9c-0.8,2.1-1.2,4.5-1.2,6.9c0,5.7,1.4,10.2,4.3,13.6
				c0.1,0.1,0.1,0.1,0.2,0.2c-1.9,0.4-4.9,1.1-5.4,1.1c-0.8,0-1.6-0.1-2-0.4c-0.7-0.4-1.2-0.8-1.5-1.4c-0.3-0.6-0.5-1.3-0.5-2.2
				c0-2.9,0.1-7,0.2-9.7c0,0,0,0,0,0c0-0.2,0-0.4,0-0.5c0,0,0,0,0,0c0-0.1,0-0.2,0-0.3c0-2.5-0.3-4.9-1-7.2c-0.7-2.3-1.7-4.3-3.1-6
				c-1.4-1.7-3.1-3.1-5.2-4.1c-2.1-1-4.6-1.5-7.4-1.5c-3.2,0-6,0.8-8.5,2.5c-2.5,1.7-4.4,3.9-5.9,6.7c-3.1,5.4-3.1,8.6-7.3,17.1
				l0,0.1c-1.4,2.6-2.9,4.4-4.4,5.4c-1.5,1-3.4,1.5-5.5,1.5c-2.1,0-3.8-0.4-5.3-1.2c-1.5-0.8-2.7-1.9-3.6-3.3
				c-0.9-1.4-1.6-3.1-2.1-5c-0.4-1.9-0.7-4-0.7-6.3h23.2v-2.4c0-2.1-0.3-4.1-0.8-5.9c-0.5-1.8-1.3-3.4-2.4-4.7
				c-1.1-1.4-2.6-2.5-4.4-3.3c-1.8-0.8-4-1.2-6.6-1.2c-2.5,0-4.7,0.5-6.7,1.5c-2,1-3.7,2.4-5,4.1c-1.4,1.8-2.5,3.7-3.2,5.9
				c-0.7,2.2-1.1,4.4-1.1,6.7c0,2.5,0.3,4.9,1,7.2c0.7,2.3,1.7,4.3,3.1,6c0.5,0.6,1.5,1.6,2,2.1c-2.9-0.1-6.4-0.8-6.8-1
				c-0.8-0.4-1.7-1-2.5-1.7c-0.8-0.7-1.8-1.7-2.8-3.1c-2.4-3.2-4.4-6-6.1-8.2c-1.6-2.3-3.7-5-6.2-8.3c1.8-0.5,3.4-1.2,4.9-1.9
				c1.5-0.7,2.8-1.6,3.8-2.6c1.2-1.1,2-2.4,2.6-3.9c0.6-1.5,0.9-3.2,0.9-5.2c0-2.2-0.4-4-1.3-5.5c-0.9-1.5-2.1-2.8-3.5-3.7
				c-1.5-1-3.2-1.7-5.1-2.1c-1.9-0.4-3.9-0.7-6-0.7h-23.3v2.5c0.7,0,1.5,0.2,2.4,0.3c0.9,0.2,1.7,0.4,2.3,0.6
				c0.9,0.3,1.4,0.8,1.7,1.5c0.2,0.6,0.4,1.4,0.4,2.2v36.5c0,0.9-0.2,1.7-0.5,2.3c-0.3,0.6-0.8,1-1.5,1.4c-0.4,0.2-1.2,0.3-2.3,0.5
				c-1.1,0.1-1.9,0.2-2.5,0.2v2.5h21.3v-2.5c-0.7,0-1.6-0.1-2.7-0.2c-1.1-0.1-1.8-0.3-2.2-0.5c-0.9-0.3-1.4-0.8-1.7-1.4
				c-0.3-0.6-0.4-1.4-0.4-2.2v-16h5.2c2.8,3.7,5.5,7.2,7.9,10.6c2.4,3.4,5.1,7.5,8.2,12.2h20.4c1.8,0.6,3.8,0.9,6,0.9
				c3.2,0,6-0.8,8.5-2.5c2.5-1.7,4.4-3.9,5.9-6.7c3.1-5.4,3.1-8.6,7.3-17.1l0-0.1c1.4-2.6,2.9-4.4,4.4-5.4c1.5-1,3.4-1.5,5.5-1.5
				c2.1,0,3.8,0.4,5.3,1.2c1.5,0.8,2.7,1.9,3.6,3.3c0.9,1.4,1.6,3.1,2.1,5c0.4,1.9,0.7,4,0.7,6.3H-98v2.4c0,2.1,0.3,4.1,0.8,5.9
				c0.5,1.8,1.3,3.4,2.4,4.7c1.1,1.4,2.6,2.5,4.4,3.3c1.8,0.8,4,1.2,6.6,1.2c2.5,0,4.7-0.5,6.7-1.6c1.2-0.6,2.3-1.3,3.2-2.2
				c0.4,0.9,0.9,1.7,1.7,2.3c1.1,0.9,2.6,1.3,4.4,1.3c1.1,0,2.3-0.1,3.1-0.4c0.8-0.2,6.7-2,8-2.5c2.6,2,5.8,3,9.7,3
				c2.7,0,5.4-0.8,7.9-2.5c2.6-1.6,4.6-3.9,6.2-6.7l-2.3-1.5c-1.3,2.2-2.8,3.9-4.3,5c-1.6,1.1-3.5,1.7-5.8,1.7
				c-3.2,0-5.7-1.4-7.7-4.2c-2-2.8-2.9-6.4-2.9-10.8c0-2.8,0.3-5.2,0.8-7.2c0.5-2,1.3-3.6,2.1-4.8c1-1.3,2-2.2,3-2.7
				c1-0.5,2.1-0.7,3.2-0.7c1,0,1.9,0.1,2.7,0.4c0.8,0.2,1.5,0.7,1.9,1.5c0,0.5-0.2,1.3-0.5,2.5c-0.3,1.1-0.4,2.2-0.4,3.3
				c0,0.9,0.4,1.7,1.2,2.4c0.8,0.7,1.9,1.1,3.3,1.1c1.3,0,2.2-0.5,2.8-1.4c0.6-0.9,0.9-2,0.9-3.1c0-1.8-0.4-3.3-1.3-4.7h7.8v23.8
				c0,2.7,0.6,4.8,1.8,6.3c1.2,1.5,3.3,2.2,6.2,2.2c2,0,3.7-0.2,5.1-0.7c1.4-0.4,2.8-1,4.4-1.6v-2.6
				C-11.2,528.1-12,528.3-13.2,528.4"/>
		</g>
	</g>
</g>
</svg>
