<?xml version="1.0" encoding="UTF-8" standalone="no"?>
<svg width="147px" height="70px" viewBox="0 0 147 70" version="1.1" xmlns="http://www.w3.org/2000/svg" xmlns:xlink="http://www.w3.org/1999/xlink">
    <!-- Generator: Sketch 40.1 (33804) - http://www.bohemiancoding.com/sketch -->
    <title>Group</title>
    <desc>Created with Sketch.</desc>
    <defs></defs>
    <g id="Page-1" stroke="none" stroke-width="1" fill="none" fill-rule="evenodd">
        <g id="React-logo-tagline" transform="translate(-8.000000, -10.000000)" fill="#009EDC">
            <g id="Group" transform="translate(8.000000, 10.000000)">
                <text id="The-Anti-Counterfeit" font-family="Georgia" font-size="10" font-weight="normal">
                    <tspan x="0.0844726562" y="66.7912669">The Anti-Counterfeiting Network</tspan>
                </text>
                <path d="M89.0939825,39.5716597 C87.662407,41.3642834 85.8654157,42.2649628 83.7054351,42.2649628 C82.4102232,42.2649628 81.3484309,41.967001 80.5239405,41.3715626 C79.7043028,40.7766095 79.0540278,40.007441 78.5794241,39.0626011 C78.1489809,38.1789065 77.8354901,37.0831446 77.6404076,35.7656098 C77.4448399,34.4553543 77.3458428,33.2246846 77.3458428,32.0789389 L91.4233258,32.0789389 C91.3000647,35.28033 90.523617,37.7785506 89.0939825,39.5716597 M16.4859269,21.3013588 L12.4411194,21.3013588 L12.4411194,2.53121967 L17.6899062,2.53121967 C20.467648,2.53121967 22.617923,3.30718214 24.142187,4.85862181 C25.6645099,6.40909091 26.4263992,8.5113232 26.4263992,11.1609511 C26.4263992,14.2842122 25.4801035,16.7552572 23.5865416,18.5740861 C21.6934649,20.3924296 19.3262698,21.3013588 16.4859269,21.3013588 M47.7267874,17.5438369 C49.158363,15.7507279 50.9553543,14.8505338 53.1143643,14.8505338 C54.4105467,14.8505338 55.4718538,15.1489809 56.2968295,15.743934 C57.1159819,16.3384018 57.7657716,17.1075704 58.2408606,18.0519249 C58.6708185,18.9356195 58.9847946,20.0308962 59.1793918,21.3489162 C59.3764154,22.6591718 59.4739566,23.8898415 59.4739566,25.0360725 L45.3974442,25.0360725 C45.5207053,21.8341961 46.2966677,19.3364607 47.7267874,17.5438369 M144.88515,40.581527 C143.88693,40.6737302 143.130864,40.7188612 142.616467,40.7188612 C141.504691,40.7188612 140.620511,40.5655128 139.961501,40.2573601 C139.302491,39.9472663 138.807991,39.4974118 138.479456,38.8980912 C138.130055,38.2614041 137.907797,37.5135878 137.815108,36.6604659 C137.722905,35.8063733 137.677774,34.7411841 137.677774,33.4653834 L137.677774,16.454869 L146.353122,16.454869 L146.353122,13.491265 L137.614688,13.491265 L137.614688,4.01423488 L131.996118,4.01423488 L131.996118,13.491265 L121.382562,13.491265 C119.869945,12.8332255 118.103041,12.5037205 116.079909,12.5037205 C113.918473,12.5037205 111.923488,12.9511485 110.092041,13.8455192 C108.26011,14.7413458 106.736331,15.9186347 105.522161,17.3807829 C104.245875,18.9035911 103.27386,20.5962472 102.604659,22.4597218 C101.935458,24.3222258 101.601585,26.3235199 101.601585,28.463604 C101.601585,33.3838564 102.846328,37.3039469 105.337755,40.2263022 C105.385797,40.2830799 105.437722,40.3359754 105.486736,40.3917826 C103.840666,40.7804918 101.225008,41.3380783 100.789712,41.3235199 C100.117599,41.304594 99.4047234,41.2017147 99.0965707,41.0153672 C98.5219994,40.6863475 98.0949531,40.2840505 97.8164025,39.8138143 C97.5359107,39.3362989 97.3995471,38.6991265 97.3995471,37.8955031 C97.3995471,35.3769007 97.4902944,31.8275639 97.5528955,29.5176318 C97.5528955,29.5122938 97.5528955,29.507441 97.5533808,29.5016176 C97.5567777,29.3434164 97.56066,29.1910385 97.5655128,29.0459398 C97.5655128,29.0430281 97.5626011,29.0439987 97.5621158,29.0430281 C97.5626011,28.9537367 97.5674539,28.8649304 97.5674539,28.775639 C97.5674539,26.5671304 97.2724038,24.4809123 96.6876415,22.5038822 C96.1009382,20.5297638 95.2114203,18.8021676 94.0176318,17.316726 C92.8223876,15.8400194 91.3058881,14.667098 89.4647363,13.8013588 C87.6221288,12.9385312 85.475736,12.5022646 83.0255581,12.5022646 C80.2478162,12.5022646 77.7898738,13.2248463 75.6478486,14.667098 C73.5077645,16.1088644 71.80055,18.0349401 70.5218376,20.4705597 C67.8542543,25.1501132 67.8629893,27.9511485 64.1666127,35.268198 L64.1355548,35.3172113 C62.9010029,37.5543513 61.6193788,39.1009382 60.2916532,39.9603688 C58.9644128,40.8193141 57.3824005,41.2458751 55.5558072,41.2458751 C53.7622129,41.2458751 52.2185377,40.9008412 50.9238111,40.2098027 C49.6261728,39.5158525 48.577483,38.5748949 47.772889,37.37868 C46.9513103,36.1436428 46.3500485,34.7072145 45.967648,33.0757037 C45.5881592,31.4471045 45.3974442,29.634099 45.3974442,27.6352313 L65.5545131,27.6352313 L65.5545131,25.5926885 C65.5545131,23.7656098 65.325461,22.0651893 64.8620188,20.4982206 C64.3980912,18.9356195 63.6934649,17.5812035 62.7447428,16.4286639 C61.7576836,15.2081851 60.4731478,14.2550954 58.8872533,13.5548366 C57.3032999,12.8565189 55.3990618,12.5022646 53.1769654,12.5022646 C51.0150437,12.5022646 49.0656745,12.9545455 47.3264316,13.8474604 C45.5881592,14.7413458 44.1323196,15.9186347 42.9598835,17.3846652 C41.743287,18.9074733 40.8222258,20.6175995 40.1957295,22.5223229 C39.5677774,24.4260757 39.2533161,26.3623423 39.2533161,28.3393724 C39.2533161,30.5478809 39.5478809,32.6345843 40.1326432,34.6111291 C40.7193465,36.5857328 41.6083792,38.313329 42.8026529,39.7987706 C43.2044646,40.2942413 44.093012,41.2007441 44.5671304,41.6277904 C42.0897768,41.5093821 38.9859269,40.9183112 38.6520544,40.7504044 C37.9309285,40.3796506 37.2054351,39.9021352 36.4755742,39.3154319 C35.743287,38.7287286 34.9260757,37.8188289 34.0205435,36.5837917 C31.9420899,33.7851828 30.1878033,31.4077968 28.7576836,29.4530896 C27.3265933,27.495956 25.5315432,25.0875121 23.3710773,22.227758 C24.934649,21.7740214 26.3647687,21.223714 27.6619217,20.5748949 C28.9590747,19.9285021 30.069395,19.1612747 30.9962795,18.275639 C32.0032352,17.3298285 32.7656098,16.2073763 33.2804918,14.9121643 C33.7939178,13.6154966 34.052572,12.1227758 34.052572,10.4335167 C34.052572,8.56227758 33.671142,6.96230993 32.9092527,5.63361372 C32.1478486,4.30588806 31.1297315,3.23147849 29.8534455,2.40747331 C28.5349401,1.56405694 27.0650275,0.952604335 25.4388547,0.570689097 C23.812682,0.190714979 22.0739243,0 20.2220964,0 L0,0 L0,2.19152378 C0.576512456,2.23422841 1.27628599,2.33079909 2.09932061,2.48608864 C2.92186995,2.63992236 3.59204141,2.8097703 4.10692333,2.99611776 C4.86784212,3.28340343 5.35118085,3.70559689 5.55791006,4.26027176 C5.76318344,4.81688774 5.86606276,5.45454545 5.86606276,6.17518602 L5.86606276,37.8489162 C5.86606276,38.6525396 5.72727273,39.3105791 5.44920738,39.8244905 C5.17114203,40.3408282 4.72419929,40.7305079 4.10692333,40.9978971 C3.73519896,41.1638628 3.08249757,41.2953737 2.14639275,41.3992236 C1.20883209,41.5025882 0.494500162,41.5744096 0,41.6151731 L0,43.8071821 L18.5241022,43.8071821 L18.5241022,41.6151731 C17.8859592,41.5952766 17.1036881,41.5229699 16.1768036,41.3992236 C15.2508897,41.2754772 14.6025558,41.14154 14.231802,40.9978971 C13.491265,40.7106115 13.0079262,40.2942413 12.7808153,39.7483015 C12.5541896,39.2013911 12.4411194,38.5695568 12.4411194,37.8489162 L12.4411194,23.9563248 L16.9294727,23.9563248 C19.3956648,27.1261728 21.6823035,30.2018764 23.7903591,33.1878033 C25.8979295,36.1717891 28.2568748,39.7123908 30.8691362,43.8071821 L48.589615,43.8071821 C50.1386283,44.3395341 51.8715626,44.6127467 53.7947266,44.6127467 C56.5729537,44.6127467 59.0308962,43.890165 61.1729214,42.4488839 C63.3130055,41.0066322 65.02022,39.0791006 66.2984471,36.6449369 C68.9660304,31.9648981 68.9577807,29.1638628 72.6541572,21.846328 L72.6852151,21.7978001 C73.9192818,19.5611453 75.2013911,18.0131026 76.5286315,17.1546425 C77.8563572,16.2947266 79.4383695,15.8686509 81.2644775,15.8686509 C83.0580718,15.8686509 84.6022323,16.2141702 85.8959884,16.9052087 C87.1945972,17.6001294 88.2428017,18.5396312 89.0469104,19.735846 C89.8694597,20.972339 90.4697509,22.4077968 90.8516661,24.0393077 C91.2316402,25.6683921 91.4233258,27.4809123 91.4233258,29.47978 L71.2657716,29.47978 L71.2657716,31.5213523 C71.2657716,33.3498868 71.495309,35.0503073 71.9582659,36.6167907 C72.4226787,38.1789065 73.1273051,39.5338078 74.0755419,40.6863475 C75.0621158,41.9068263 76.3466516,42.8599159 77.9330314,43.5596894 C79.5164995,44.2580071 81.4207376,44.6127467 83.6433193,44.6127467 C85.805241,44.6127467 87.7541249,44.1614364 89.4943384,43.267551 C90.5216758,42.7395665 91.4490456,42.1087027 92.2783889,41.3807829 C92.6108056,42.202847 93.0951148,42.8710773 93.7400518,43.3796506 C94.69945,44.1264963 95.9781624,44.5025882 97.5834681,44.5025882 C98.5103526,44.5025882 99.5638952,44.3943708 100.295212,44.1793918 C101.005662,43.9668392 106.107409,42.4372371 107.24539,42.0344549 C109.495632,43.7499191 112.305888,44.6108056 115.680039,44.6108056 C118.045293,44.6108056 120.341637,43.8989 122.563248,42.4789712 C124.7868,41.0590424 126.576998,39.1344225 127.935781,36.7070527 L125.962148,35.4113555 C124.812035,37.3553866 123.562925,38.8146231 122.217244,39.7851828 C120.871077,40.7586542 119.200744,41.2449046 117.208185,41.2449046 C114.455192,41.2449046 112.229699,40.0360725 110.535587,37.6164672 C108.839049,35.1983177 107.992236,32.0760272 107.992236,28.2471692 C107.992236,25.8193141 108.227111,23.7301844 108.700744,21.9807506 C109.171951,20.231802 109.787286,18.8434164 110.547719,17.8121967 C111.38968,16.6810094 112.255904,15.9035911 113.148334,15.4813976 C114.041249,15.0616305 114.981236,14.8495632 115.966839,14.8495632 C116.808314,14.8495632 117.593983,14.9563248 118.322388,15.1717891 C119.052248,15.3877386 119.6011,15.813329 119.970398,16.4500162 C119.929149,16.9018117 119.785021,17.613232 119.537043,18.5876739 C119.291491,19.5630864 119.16726,20.5118085 119.16726,21.4357813 C119.16726,22.1942737 119.502103,22.8809447 120.171789,23.4962795 C120.839049,24.1125849 121.780492,24.4202523 122.996118,24.4202523 C124.127305,24.4202523 124.941605,24.0228082 125.43562,23.2308314 C125.927693,22.4398253 126.175671,21.5284698 126.175671,20.4982206 C126.175671,18.9438693 125.803462,17.5972177 125.061954,16.454869 L131.872371,16.454869 L131.872371,37.0763507 C131.872371,39.4226787 132.393562,41.2400518 133.432061,42.5255581 C134.47153,43.8115497 136.267551,44.455516 138.819638,44.455516 C140.547719,44.455516 142.008412,44.2652863 143.20317,43.8853122 C144.396474,43.5029117 145.662569,43.0355872 147,42.4789712 L147,40.2263022 C146.587512,40.3709156 145.882886,40.487868 144.88515,40.581527" id="Fill-1"></path>
            </g>
        </g>
    </g>
</svg>